<svg xmlns="http://www.w3.org/2000/svg" width="580.683" height="486.816" viewBox="0 0 580.683 486.816"><g transform="translate(-1186.427 -364.099)"><circle cx="185.768" cy="185.768" r="185.768" transform="translate(1262.164 430.373)" fill="#eff8ff"/><circle cx="150.902" cy="150.902" r="150.902" transform="translate(1297.029 465.238)" fill="#eef9ff"/><path d="M1282.683,640.268c6.265,4.358,8.716-7.354,8.716-15.254,10.623,1.634,15.744-8.64,15.744-8.64-6.439-4.958-12.7-8.88-17.378-9.882-6.134-1.318-11.2-.076-13.979,3.465l-.033.033C1271.646,615.274,1272.6,625.635,1282.683,640.268Z" transform="translate(7.729 21.579)" fill="#b1ea8c" stroke="#002e4e" stroke-miterlimit="10" stroke-width="2"/><path d="M1302.926,716.45c6.363,9.8,16.768,19.9,33.231,29.418" transform="translate(10.366 31.471)" fill="none" stroke="#002e4e" stroke-miterlimit="10" stroke-width="2"/><path d="M1304.376,615.52c14.567,11.2,30.017,27.707,30.017,27.707" transform="translate(10.496 22.433)" fill="#ef7f65" stroke="#002e4e" stroke-miterlimit="10" stroke-width="2"/><path d="M1270.732,651.923c10.9,27.239,9.261,26.694,6.81,36.5s-4.086,34.876,28.6,37.589c-19.111-29.429-1.634-56.112-1.634-56.112s-4.358-5.448-21.246-29.963c-10.078-14.633-11.037-24.994-6.93-30.279C1275.515,610.434,1260.119,625.4,1270.732,651.923Z" transform="translate(7.15 21.909)" fill="#b1ea8c" stroke="#002e4e" stroke-miterlimit="10" stroke-width="2"/><circle cx="2.179" cy="2.179" r="2.179" transform="translate(1302.114 665.17)" fill="#002e4e"/><circle cx="2.179" cy="2.179" r="2.179" transform="translate(1313.649 653.635)" fill="#002e4e"/><circle cx="234.253" cy="234.253" r="234.253" transform="translate(1213.679 381.888)" fill="none" stroke="#002e4e" stroke-miterlimit="10" stroke-width="1.044" stroke-dasharray="6.262"/><rect width="210.067" height="416.207" rx="10.333" transform="translate(1342.898 365)" fill="#fff" stroke="#002e4e" stroke-miterlimit="10" stroke-width="1.802"/><rect width="192.398" height="347.72" rx="4" transform="translate(1351.733 395.43)" fill="none" stroke="#002e4e" stroke-miterlimit="10" stroke-width="1.784"/><circle cx="9.269" cy="9.269" r="9.269" transform="translate(1440.626 754.161)" fill="none" stroke="#a6b7bc" stroke-miterlimit="10" stroke-width="1"/><text transform="translate(1446.081 483.444)" fill="#002e4e" font-size="25" font-family="Rubik-Regular, Rubik" letter-spacing="0.06em"><tspan x="-49.613" y="0">Sign Up</tspan></text><g transform="translate(1368.42 535.214)"><line x2="159.022" transform="translate(0 22.183)" fill="none" stroke="#e8edef" stroke-miterlimit="10" stroke-width="1.802"/><text transform="translate(0 11)" fill="#a6b7bc" font-size="12" font-family="Rubik-Regular, Rubik"><tspan x="0" y="0">Name</tspan></text></g><g transform="translate(1368.42 583.154)"><line x2="159.022" transform="translate(0 22.183)" fill="none" stroke="#e8edef" stroke-miterlimit="10" stroke-width="1.802"/><text transform="translate(0 11)" fill="#a6b7bc" font-size="12" font-family="Rubik-Regular, Rubik"><tspan x="0" y="0">Email Address</tspan></text></g><g transform="translate(1368.42 631.094)"><line x2="159.022" transform="translate(0 22.183)" fill="none" stroke="#e8edef" stroke-miterlimit="10" stroke-width="1.802"/><text transform="translate(0 11)" fill="#a6b7bc" font-size="12" font-family="Rubik-Regular, Rubik"><tspan x="0" y="0">Password</tspan></text></g><rect width="157.984" height="27.239" rx="12.5" transform="translate(1372.571 684.806)" fill="#ef7f65" opacity="0.3"/><line x2="28.328" transform="translate(1433.767 380.254)" fill="#a6b7bc" stroke="#a6b7bc" stroke-linecap="round" stroke-miterlimit="10" stroke-width="3"/><rect width="183.044" height="114.947" rx="13.167" transform="translate(1583.58 552.402)" fill="#fff" stroke="#002e4e" stroke-miterlimit="10" stroke-width="0.971"/><line x2="135.83" transform="translate(1607.187 582.546)" fill="none" stroke="#a6b7bc" stroke-miterlimit="10" stroke-width="1"/><line x2="102.054" transform="translate(1624.62 604.337)" fill="none" stroke="#a6b7bc" stroke-miterlimit="10" stroke-width="1"/><rect width="88.253" height="23.97" rx="11" transform="translate(1641.689 626.693)" fill="#80e0dd" opacity="0.25"/><path d="M1316.412,692.1c-7.188,0-12.507-.4-14.083-.539l1.3-15.2h0c12.325,1.043,37.217,6.774,49.217-4.658l10.52,11.046C1350.029,695.449,1333.062,692.1,1316.412,692.1Z" transform="translate(10.312 27.464)" fill="#fff"/><path d="M1305.254,652.4s11.708,0,8.984-7.9" transform="translate(10.574 25.028)" fill="none" stroke="#002e4e" stroke-miterlimit="10" stroke-width="1"/><rect width="157.984" height="27.239" rx="12.5" transform="translate(1368.939 680.969)" fill="#ef7f65"/><text transform="translate(1445.425 697.53)" fill="#fff" font-size="11" font-family="Rubik-Regular, Rubik"><tspan x="-28.501" y="0">Create One</tspan></text><path d="M1302.926,683.957s47.668,4.086,64.828-12.257" transform="translate(10.366 27.464)" fill="none" stroke="#002e4e" stroke-miterlimit="10" stroke-width="2"/><rect width="88.253" height="23.97" rx="11" transform="translate(1637.979 623.946)" fill="#80e0dd"/><text transform="translate(1681.979 638.947)" fill="#fff" font-size="9" font-family="Rubik-Regular, Rubik"><tspan x="-17.725" y="0">Comfirm</tspan></text><g transform="translate(1187.167 394.341)"><rect width="176.507" height="61.015" rx="13.167" transform="translate(0 0.106)" fill="#fff" stroke="#002e4e" stroke-miterlimit="10" stroke-width="1.48"/><circle cx="20.701" cy="20.701" r="20.701" transform="translate(11.812 9.659)" fill="#80e0dd"/><text transform="translate(62.13 34.606)" fill="#a6b7bc" font-size="12" font-family="Rubik-Regular, Rubik"><tspan x="0" y="0">Upload Image</tspan></text><text transform="translate(32.812 37.659)" fill="#fff" font-size="18" font-family="la-solid-900" font-weight="900"><tspan x="-9" y="0"></tspan></text></g></g></svg>